<svg xmlns="http://www.w3.org/2000/svg" viewBox="0 0 48 48" style="enable-background:new 0 0 48 48" xml:space="preserve">
	<style>
		path {
			fill: #000000;
		}
		@media (prefers-color-scheme: dark) {
			path { fill: #ffffff; }
		}
	</style>
    <path d="M39.9 38.9H44v3H4v-3h7.2m0 0H37 11.2zm21.5 0h4.2m-11.4 0h4.2m-11.4 0h4.2m14.4-20.6H4V16L24 1.9 44 16v2.3h-7.1zm.9-3L24 5.6l-13.6 9.7M2.7 43.1h42.5v3H2.7zm5.5-23.6h3v18.2h-3zm28.7 0h3v18.2h-3zM22.1 33.4c.7 0 1.3-.1 2-.3s1.3-.5 2-.9l5.5 5.5 2-2-5.6-5.5c.4-.6.6-1.2.8-1.8.1-.6.2-1.3.2-1.9 0-2-.7-3.6-2-5-1.3-1.3-3-2-4.9-2s-3.6.7-5 2c-1.3 1.3-2 3-2 5s.7 3.6 2 4.9c1.3 1.3 3 2 5 2zm0-3c-1.1 0-2.1-.4-2.8-1.1s-1.1-1.7-1.1-2.8c0-1.1.4-2.1 1.1-2.8s1.7-1.1 2.8-1.1 2.1.4 2.8 1.1 1.1 1.7 1.1 2.8c0 1.1-.4 2.1-1.1 2.8s-1.7 1.1-2.8 1.1z"/>
</svg>