<?xml version="1.0" encoding="utf-8"?>
<svg version="1.1" xmlns="http://www.w3.org/2000/svg" xmlns:xlink="http://www.w3.org/1999/xlink" x="0px" y="0px"
	 viewBox="0 0 48 48" style="enable-background:new 0 0 48 48;" xml:space="preserve">
	<style>
		path {
			fill: #000000;
		}
		@media (prefers-color-scheme: dark) {
			path { fill: #ffffff; }
		}
	</style>
	<path d="M4,44v-3h4.2V20.4H4v-2.3L24,4l20,14.1v2.3h-4.1V41H44v3H4z M11.2,41h25.8H11.2z M36.9,41V16.8L24,7.7l-12.8,9.1V41H36.9z"
		/>
	<path d="M22.1,33.2c0.7,0,1.3-0.1,2-0.3c0.7-0.2,1.3-0.5,2-0.9l5.5,5.5l2-2L28,30c0.4-0.6,0.6-1.2,0.8-1.8c0.1-0.6,0.2-1.3,0.2-1.9
		c0-2-0.7-3.6-2-5c-1.3-1.3-3-2-4.9-2s-3.6,0.7-5,2c-1.3,1.3-2,3-2,5s0.7,3.6,2,4.9S20.1,33.2,22.1,33.2z M22.1,30.2
		c-1.1,0-2.1-0.4-2.8-1.1s-1.1-1.7-1.1-2.8c0-1.1,0.4-2.1,1.1-2.8s1.7-1.1,2.8-1.1s2.1,0.4,2.8,1.1s1.1,1.7,1.1,2.8
		c0,1.1-0.4,2.1-1.1,2.8S23.2,30.2,22.1,30.2z"/>
</svg>
